<?xml version="1.0" standalone="no"?>
<!DOCTYPE svg PUBLIC "-//W3C//DTD SVG 20010904//EN"
 "http://www.w3.org/TR/2001/REC-SVG-20010904/DTD/svg10.dtd">
<svg version="1.0" xmlns="http://www.w3.org/2000/svg"
 width="286.000000pt" height="364.000000pt" viewBox="0 0 286.000000 364.000000"
 preserveAspectRatio="xMidYMid meet">

<g transform="translate(0.000000,364.000000) scale(0.100000,-0.100000)"
fill="#000000" stroke="none">
<path d="M1343 3143 c31 -2 83 -2 115 0 31 2 5 3 -58 3 -63 0 -89 -1 -57 -3z"/>
<path d="M1170 3133 c-149 -23 -236 -66 -271 -135 -20 -37 -23 -63 -27 -193
l-4 -150 53 4 c39 3 47 6 30 10 -37 10 -48 34 -28 65 20 30 61 35 106 11 53
-27 102 -28 179 -5 64 20 78 21 117 10 24 -7 52 -21 61 -31 33 -36 6 -44 -184
-49 l-177 -6 193 -2 193 -2 -3 -37 -3 -38 -420 -5 -420 -5 -53 -29 c-102 -57
-156 -142 -189 -296 -23 -112 -23 -288 0 -398 37 -174 85 -257 176 -304 50
-26 61 -28 176 -28 l123 0 4 153 c3 149 4 154 36 219 20 42 51 83 80 109 26
23 38 37 26 31 -12 -6 -38 -12 -59 -14 -74 -5 -95 72 -41 151 70 100 179 135
451 145 77 3 149 7 160 10 11 3 47 12 80 21 155 44 185 43 228 -5 30 -34 35
-73 13 -123 -36 -84 -98 -107 -316 -114 -91 -3 -167 -7 -169 -9 -2 -2 97 -4
220 -4 222 0 226 0 277 26 58 29 96 69 123 129 15 34 19 83 25 320 5 198 3
296 -5 333 -29 135 -146 221 -324 236 l-62 6 78 -15 c137 -26 210 -80 237
-175 15 -53 2 -89 -39 -106 -32 -14 -58 -15 -226 -4 -104 6 -207 15 -228 20
-39 8 -84 36 -148 91 -74 62 -147 67 -210 15 -40 -34 -54 -29 -53 18 2 72 73
113 249 145 49 9 17 13 -35 4z m-7 -163 c34 -27 51 -79 38 -113 -6 -15 -8 -33
-5 -40 2 -7 -7 -24 -22 -37 -19 -19 -37 -25 -70 -25 -69 0 -95 36 -97 139 -2
77 95 124 156 76z m267 -419 c35 -10 41 -57 8 -70 -35 -14 -437 -78 -563 -89
-60 -5 -130 -17 -155 -27 -63 -23 -139 -37 -166 -31 -32 8 -57 59 -49 99 13
62 53 102 118 117 40 10 773 11 807 1z m-776 -781 c51 -24 87 -76 93 -133 5
-40 2 -46 -28 -71 -32 -27 -37 -28 -106 -23 -101 8 -142 41 -158 130 -6 32 16
79 47 101 31 22 104 20 152 -4z"/>
<path d="M1162 2804 c-15 -10 -38 -15 -67 -12 -47 3 -52 -6 -8 -15 29 -5 86
13 97 32 10 15 5 14 -22 -5z"/>
</g>
</svg>
